<svg width="61" height="62" viewBox="0 0 61 62" fill="none" xmlns="http://www.w3.org/2000/svg">
<path d="M23.14 5.96911C21.9096 7.44691 22.1238 9.68701 23.6183 10.9725C25.1129 12.258 27.3219 12.1022 28.5523 10.6244C29.7828 9.14659 29.5686 6.90648 28.0741 5.62096C26.5795 4.33545 24.3705 4.49132 23.14 5.96911Z" fill="#4361EE"/>
<path d="M42.1508 10.3264C40.9002 11.8283 41.0844 14.0763 42.5621 15.3474C44.0399 16.6184 46.2516 16.4312 47.5022 14.9292C48.7527 13.4273 48.5685 11.1793 47.0908 9.90824C45.613 8.63719 43.4013 8.82438 42.1508 10.3264Z" fill="#4361EE"/>
<path fill-rule="evenodd" clip-rule="evenodd" d="M45.5891 43.7162C52.4989 35.4172 51.4812 22.9964 43.3162 15.9734C43.1016 15.7889 42.8843 15.6099 42.6644 15.4365L46.8986 9.75119C47.2191 10.0024 47.5356 10.2622 47.8478 10.5307C58.9702 20.0975 60.3565 37.0172 50.944 48.322C41.5316 59.6269 24.8847 61.0358 13.7622 51.4691C2.63975 41.9023 1.2535 24.9826 10.666 13.6777C11.8233 12.2877 13.09 11.0473 14.4423 9.95856L18.8668 15.4943C17.8464 16.3077 16.8914 17.238 16.0208 18.2836C9.11112 26.5825 10.1288 39.0034 18.2938 46.0264C26.4589 53.0494 38.6794 52.0151 45.5891 43.7162Z" fill="#4361EE"/>
<path d="M13.996 10.4065C12.7835 11.8629 12.9999 14.0752 14.4795 15.3479C15.9591 16.6205 18.1416 16.4716 19.3542 15.0152C20.5668 13.5588 20.3503 11.3465 18.8707 10.0739C17.3911 8.80122 15.2086 8.95015 13.996 10.4065Z" fill="#4361EE"/>
<path d="M33.081 5.95156C31.8297 7.45451 32.014 9.70396 33.4927 10.9758C34.9714 12.2477 37.1846 12.0604 38.4359 10.5575C39.6873 9.0545 39.503 6.80505 38.0243 5.53317C36.5456 4.26129 34.3324 4.44861 33.081 5.95156Z" fill="#4361EE"/>
<path fill-rule="evenodd" clip-rule="evenodd" d="M30.805 37.8198C27.0991 37.8198 24.095 34.7664 24.095 30.9998C24.095 27.2332 27.0991 24.1798 30.805 24.1798C34.5108 24.1798 37.515 27.2332 37.515 30.9998C37.515 34.7664 34.5108 37.8198 30.805 37.8198ZM30.805 44.9498C23.2249 44.9498 17.08 38.7042 17.08 30.9998C17.08 23.2954 23.2249 17.0498 30.805 17.0498C38.3851 17.0498 44.53 23.2954 44.53 30.9998C44.53 38.7042 38.3851 44.9498 30.805 44.9498Z" fill="#4361EE"/>
<g style="mix-blend-mode:multiply">
<path d="M22.5301 5.96911C21.2996 7.44691 21.5138 9.68701 23.0083 10.9725C24.5029 12.258 26.7119 12.1022 27.9424 10.6244C29.1728 9.14659 28.9586 6.90648 27.4641 5.62096C25.9695 4.33545 23.7605 4.49132 22.5301 5.96911Z" fill="#F72585"/>
<path d="M41.5408 10.3264C40.2902 11.8283 40.4744 14.0763 41.9521 15.3474C43.4299 16.6184 45.6416 16.4312 46.8922 14.9292C48.1427 13.4273 47.9585 11.1793 46.4808 9.90824C45.003 8.63719 42.7913 8.82438 41.5408 10.3264Z" fill="#F72585"/>
<path fill-rule="evenodd" clip-rule="evenodd" d="M44.9791 43.7162C51.8889 35.4172 50.8712 22.9964 42.7062 15.9734C42.4916 15.7889 42.2743 15.6099 42.0544 15.4365L46.2886 9.75119C46.6091 10.0024 46.9256 10.2622 47.2378 10.5307C58.3602 20.0975 59.7465 37.0172 50.334 48.322C40.9216 59.6269 24.2747 61.0358 13.1522 51.4691C2.02976 41.9023 0.643517 24.9826 10.056 13.6777C11.2133 12.2877 12.48 11.0473 13.8324 9.95856L18.2569 15.4943C17.2364 16.3077 16.2815 17.238 15.4109 18.2836C8.50114 26.5825 9.51878 39.0034 17.6838 46.0264C25.8489 53.0494 38.0694 52.0151 44.9791 43.7162Z" fill="#F72585"/>
<path d="M13.3861 10.4065C12.1735 11.8629 12.3899 14.0752 13.8696 15.3479C15.3492 16.6205 17.5316 16.4716 18.7442 15.0152C19.9568 13.5588 19.7403 11.3465 18.2607 10.0739C16.7811 8.80122 14.5986 8.95015 13.3861 10.4065Z" fill="#F72585"/>
<path d="M32.4711 5.95156C31.2197 7.45451 31.404 9.70396 32.8827 10.9758C34.3614 12.2477 36.5746 12.0604 37.8259 10.5575C39.0773 9.0545 38.893 6.80505 37.4143 5.53317C35.9356 4.26129 33.7224 4.44861 32.4711 5.95156Z" fill="#F72585"/>
<path fill-rule="evenodd" clip-rule="evenodd" d="M30.195 37.8198C26.4892 37.8198 23.485 34.7664 23.485 30.9998C23.485 27.2332 26.4892 24.1798 30.195 24.1798C33.9008 24.1798 36.905 27.2332 36.905 30.9998C36.905 34.7664 33.9008 37.8198 30.195 37.8198ZM30.195 44.9498C22.6149 44.9498 16.47 38.7042 16.47 30.9998C16.47 23.2954 22.6149 17.0498 30.195 17.0498C37.7751 17.0498 43.92 23.2954 43.92 30.9998C43.92 38.7042 37.7751 44.9498 30.195 44.9498Z" fill="#F72585"/>
</g>
</svg>
